<?xml version="1.0" encoding="UTF-8" standalone="no"?>
<!-- Generator: Adobe Illustrator 17.1.0, SVG Export Plug-In . SVG Version: 6.00 Build 0)  -->
<svg xmlns:dc="http://purl.org/dc/elements/1.1/" xmlns:cc="http://creativecommons.org/ns#" xmlns:rdf="http://www.w3.org/1999/02/22-rdf-syntax-ns#" xmlns:svg="http://www.w3.org/2000/svg" xmlns="http://www.w3.org/2000/svg" xmlns:sodipodi="http://sodipodi.sourceforge.net/DTD/sodipodi-0.dtd" xmlns:inkscape="http://www.inkscape.org/namespaces/inkscape" version="1.1" x="0px" y="0px" viewBox="0 0 765 165" enable-background="new 0 0 765 165" xml:space="preserve" id="svg2" inkscape:version="0.91 r13725" sodipodi:docname="CodinGame_Logo.svg"><metadata id="metadata42"><rdf:RDF><cc:Work rdf:about=""><dc:format>image/svg+xml</dc:format><dc:type rdf:resource="http://purl.org/dc/dcmitype/StillImage"/><dc:title/></cc:Work></rdf:RDF></metadata><defs id="defs40"/><sodipodi:namedview pagecolor="#ffffff" bordercolor="#666666" borderopacity="1" objecttolerance="10" gridtolerance="10" guidetolerance="10" inkscape:pageopacity="0" inkscape:pageshadow="2" inkscape:window-width="1050" inkscape:window-height="753" id="namedview38" showgrid="false" inkscape:zoom="0.47973856" inkscape:cx="382.5" inkscape:cy="82.5" inkscape:window-x="463" inkscape:window-y="290" inkscape:window-maximized="0" inkscape:current-layer="layer1"/><g inkscape:groupmode="layer" id="layer1" inkscape:label="Layer 1"><rect style="fill:#20252a;fill-opacity:1;fill-rule:evenodd;stroke:#000000;stroke-width:0.86177653px;stroke-linecap:butt;stroke-linejoin:miter;stroke-opacity:1" id="rect3373" width="569.19818" height="162.72678" x="87.478569" y="2.3423326"/></g><g id="Background" display="none"><rect display="inline" width="765" height="165" id="rect5"/></g><g id="Codingame_-_Logo_-_Full"><g id="g8"><path fill="none" d="M426.9,96.5c-0.8,4.5,4,3.9,4,3.9s5.1,0.2,6.9-6.4c0.2-1.1,0.5-2.6,0.5-2.6s-3.2,0.7-6.2,0.9    C427.5,93.1,426.9,96.1,426.9,96.5z" id="path10"/><path fill="none" d="M214.4,80.4L214.4,80.4c0,0-4.4-0.3-6.7,4.3c-2.8,6.4-1.5,10.5-1.5,10.9c0.9,3.6,4.9,3.5,4.9,3.5l0,0    c0,0,4.4,0.3,6.7-4.3c2.8-6.4,1.5-10.5,1.5-10.9C218.4,80.2,214.4,80.4,214.4,80.4z" id="path12"/><path fill="none" d="M268.5,80.3c-4.2-0.1-7.4,5-8.3,9.8c-0.8,4.9-0.1,8.8,5,8.8c3.1,0,6.7-1.8,8.1-8.8    C273.9,86.8,274.4,80.3,268.5,80.3z" id="path14"/><path fill="none" d="M566.2,78.2c-5.6,0-6.8,7.3-6.8,7.3h10.8C570.2,85.5,571.7,78.2,566.2,78.2z" id="path16"/><path fill="#FFFFFF" d="M163.8,68c0,0,2.9-1.6,6.6-2.2c10.4-1,15.5,3.2,15.5,3.2l2.9-16.8c0,0-14.8-4.5-28.5,0.3    c-4,1.3-16.3,6.2-22.7,22c-1.5,3.6-2.5,10.1-2.6,11.8c-1.2,19.2,12.3,25.6,25.9,25.7c9.8,0.1,17.9-2.6,18-2.8l2.8-16    c0,0-7.6,3.7-14.3,3.4s-9.7-3.3-11.3-5.6c-1.6-2.3-2.2-7.8-0.2-13.8C157.9,71.3,162.8,68.4,163.8,68z" id="path18"/><path fill="#FFFFFF" d="M216.6,67.4c0,0-24.1-1.2-28.6,22.1c-1.8,9.8,1.3,22.5,20.8,22.5c19.5,0,27-12.7,28.7-22.5    C241.1,66.3,216.6,67.4,216.6,67.4z M217.8,94.7c-2.4,4.7-6.7,4.3-6.7,4.3l0,0c0,0-4.1,0.1-4.9-3.5c-0.1-0.4-1.3-4.5,1.5-10.9    c2.4-4.7,6.7-4.3,6.7-4.3l0,0c0,0,4.1-0.1,4.9,3.5C219.4,84.2,220.7,88.3,217.8,94.7z" id="path20"/><path fill="#FFFFFF" d="M280,48l-4.3,24.5l0,0c-2.1-3.6-5.7-5.6-10.5-5.6c-10,0-20.6,9-23.3,24.6c-2.2,12.5,3.7,20.6,14.5,20.6    c5.9,0,10.3-2.4,13.5-6.2l0,0l-0.9,5h17.8l10.9-63H280z M273.3,90.2c-1.4,7-5,8.8-8.1,8.8c-5.1-0.1-5.9-4-5-8.8    c0.8-4.9,4.1-9.9,8.3-9.8C274.4,80.3,273.9,86.8,273.3,90.2z" id="path22"/><path fill="#FFFFFF" d="M341.4,68.9c0,0-5.3-3.6-14.3,0c-3.9,1.5-7.7,6.3-7.7,6.3l1.2-6.9h-17.8L297.5,99h17.8l2-11.8l0.1-0.4    c0.3-1.5,1.6-6.5,6.3-6.5c5.4,0,3.7,6.9,3.7,6.9l-4.1,23.8H341c0,0,3.9-22.3,4.9-28C347.7,72.3,341.4,68.9,341.4,68.9z" id="path24"/><ellipse fill="#FFFFFF" cx="313.3" cy="54.8" rx="8.2" ry="7.2" id="ellipse26"/><path fill="#FFD200" d="M389.7,65c12.4,0,16.8,3.3,16.8,3.3s2.6-14.8,2.7-15.8c-8.3-2.1-48-9.8-57,30    c-5.4,31.2,27.5,29.5,27.5,29.5s13,0,24.1-5c0.2-1,3.9-22.4,3.9-22.4l-18.2-0.1l-2.1,12.3c0,0-11.3,3-15.4-5.5    c-1.6-3.1-0.5-9.2-0.5-9.2S373.9,65,389.7,65z" id="path28"/><path fill="#FFD200" d="M440.3,67.3c-9.8-0.5-20.4,3.3-20.4,3.3l-2.1,11.8c0,0,7.8-4.3,15.7-4.3c7.8,0,6.2,4.9,6.2,4.9    s-11.5,1.3-13.3,1.5C412.1,87.1,411,98.6,411,98.6s-2.7,13.4,10.7,13.4c9.2,0,14.5-7.5,14.5-7.5L435,111h16.2l4.3-24.8    C455.5,86.2,461,67.4,440.3,67.3z M437.8,94.1c-1.8,6.5-6.9,6.4-6.9,6.4s-4.8,0.6-4-3.9c0.1-0.4,0.7-3.5,5.3-4.2    c2.9-0.3,6.2-0.9,6.2-0.9S438,93,437.8,94.1z" id="path30"/><path fill="#FFD200" d="M526.3,67.3c-10.5,0-15.7,7.5-15.7,7.5s-2-7.5-11.7-7.5c-9.7,0-15.5,7.7-15.5,7.7l1.1-6.6h-17.8l-7.4,42.5    h17.8l4.3-24.6c0,0,1.5-6,6.2-6s3.6,6.1,3.6,6.1L487,111h17.9l4.3-24.5c0,0,1.2-6.2,6.2-6.2s3.6,6.3,3.6,6.3l-4.3,24.3h18    l4.9-28.5C537.5,82.5,540.2,67.3,526.3,67.3z" id="path32"/><path fill="#FFD200" d="M610.9,52.6c-7.1-0.7-9.3,2.9-10.5,4.6c-1.6,3.5-3.5,6.6-3.5,6.6s-5.3,6.1-11.7,6.3    c-7.6,0-7.9-2.8-15.7-2.7c-16.6,0-26.2,11.7-28.1,22.5c-3.9,22.3,17.1,22.4,19,22.4c11.6,0,17-2.8,17-2.8l1.8-11    c0,0-5.3,2.4-12.9,2.4s-8.5-6-8.5-6h27.4c0,0,1.1-7.3,1.2-8.1c0.8-3.8,0.4-6,0.6-7.2c0.2-1.1,2.3-10.7,19.9-12.9    c10.1-1.8,9.9-7.4,9.9-7.8S616.8,53.8,610.9,52.6z M570.2,85.5h-10.8c0,0,1.3-7.3,6.8-7.3S570.2,85.5,570.2,85.5z" id="path34"/><circle fill="#FFD200" cx="623.4" cy="50.6" r="3.7" id="circle36"/></g></g></svg>